<svg width="45" height="45" viewBox="0 0 45 45" fill="none" xmlns="http://www.w3.org/2000/svg">
<path d="M17.6667 38.9971L16.1667 38.9971V38.9971H17.6667ZM14.2525 37.5829L13.1918 36.5223L13.1918 36.5223L14.2525 37.5829ZM12.8362 38.9992L13.8969 40.0598L13.8969 40.0598L12.8362 38.9992ZM10.0078 38.9992L11.0684 37.9385L11.0684 37.9385L10.0078 38.9992ZM6.00083 34.9922L7.06149 33.9316L7.06149 33.9316L6.00083 34.9922ZM6.00083 32.1638L7.06149 33.2245L7.06149 33.2245L6.00083 32.1638ZM7.41711 30.7475L6.35645 29.6869L6.35644 29.6869L7.41711 30.7475ZM6.00286 17.6667L6.00286 16.1667H6.00286V17.6667ZM7.41707 14.2524L6.35641 15.3131L6.35641 15.3131L7.41707 14.2524ZM6.00082 12.8362L7.06148 11.7755L7.06148 11.7755L6.00082 12.8362ZM6.00082 10.0078L7.06148 11.0684L7.06148 11.0684L6.00082 10.0078ZM10.0078 6.00083L8.9471 4.94017L8.9471 4.94017L10.0078 6.00083ZM12.8362 6.00083L11.7755 7.06149L11.7755 7.06149L12.8362 6.00083ZM14.2525 7.4171L15.3131 6.35644L15.3131 6.35644L14.2525 7.4171ZM17.6667 6.00289L19.1667 6.00289V6.00289H17.6667ZM27.3333 6.00287L28.8333 6.00287V6.00287H27.3333ZM30.7476 7.41709L31.8082 8.47775L31.8082 8.47775L30.7476 7.41709ZM32.1638 6.00086L31.1031 4.9402L31.1031 4.9402L32.1638 6.00086ZM34.9922 6.00086L36.0529 4.9402L36.0529 4.9402L34.9922 6.00086ZM38.9991 10.0078L37.9385 11.0685L37.9385 11.0685L38.9991 10.0078ZM38.9991 12.8362L37.9385 11.7756L37.9385 11.7756L38.9991 12.8362ZM37.5829 14.2524L38.6436 15.3131L38.6436 15.3131L37.5829 14.2524ZM38.9971 17.6667L38.9971 19.1667H38.9971V17.6667ZM38.9991 32.1638L40.0598 31.1031L40.0598 31.1031L38.9991 32.1638ZM38.9991 34.9922L40.0598 36.0529L40.0598 36.0529L38.9991 34.9922ZM34.9922 38.9991L33.9315 37.9385L33.9315 37.9385L34.9922 38.9991ZM32.1638 38.9991L33.2244 37.9385L33.2244 37.9385L32.1638 38.9991ZM30.7476 37.5829L29.6869 38.6436L29.6869 38.6436L30.7476 37.5829ZM27.3333 38.9971L25.8333 38.9971V38.9971H27.3333ZM16.1667 41C16.1667 42.933 17.7337 44.5 19.6667 44.5V41.5C19.3905 41.5 19.1667 41.2761 19.1667 41H16.1667ZM16.1667 38.9971V41H19.1667V38.9971H16.1667ZM15.3131 38.6436C15.6281 38.3286 16.1667 38.5517 16.1667 38.9971L19.1667 38.9971C19.1667 35.879 15.3967 34.3174 13.1918 36.5223L15.3131 38.6436ZM13.8969 40.0598L15.3131 38.6436L13.1918 36.5223L11.7755 37.9385L13.8969 40.0598ZM8.94711 40.0598C10.3139 41.4267 12.53 41.4267 13.8969 40.0598L11.7755 37.9385C11.5803 38.1338 11.2637 38.1338 11.0684 37.9385L8.94711 40.0598ZM4.94017 36.0529L8.94711 40.0598L11.0684 37.9385L7.06149 33.9316L4.94017 36.0529ZM4.94017 31.1032C3.57334 32.47 3.57334 34.6861 4.94017 36.0529L7.06149 33.9316C6.86623 33.7363 6.86623 33.4197 7.06149 33.2245L4.94017 31.1032ZM6.35644 29.6869L4.94017 31.1032L7.06149 33.2245L8.47777 31.8082L6.35644 29.6869ZM6.00289 28.8333C6.44835 28.8333 6.67142 29.3719 6.35645 29.6869L8.47777 31.8082C10.6826 29.6033 9.12105 25.8333 6.00289 25.8333V28.8333ZM4 28.8333H6.00289V25.8333H4V28.8333ZM0.5 25.3333C0.5 27.2663 2.067 28.8333 4 28.8333V25.8333C3.72386 25.8333 3.5 25.6095 3.5 25.3333H0.5ZM0.5 19.6667V25.3333H3.5V19.6667H0.5ZM4 16.1667C2.067 16.1667 0.5 17.7337 0.5 19.6667H3.5C3.5 19.3905 3.72386 19.1667 4 19.1667V16.1667ZM6.00286 16.1667H4V19.1667H6.00286V16.1667ZM6.35641 15.3131C6.6714 15.6281 6.44831 16.1667 6.00286 16.1667L6.00286 19.1667C9.12103 19.1667 10.6826 15.3967 8.47773 13.1918L6.35641 15.3131ZM4.94016 13.8969L6.35641 15.3131L8.47773 13.1918L7.06148 11.7755L4.94016 13.8969ZM4.94016 8.94711C3.57333 10.3139 3.57333 12.53 4.94016 13.8969L7.06148 11.7755C6.86622 11.5803 6.86622 11.2637 7.06148 11.0684L4.94016 8.94711ZM8.9471 4.94017L4.94016 8.94711L7.06148 11.0684L11.0684 7.06149L8.9471 4.94017ZM13.8968 4.94017C12.53 3.57333 10.3139 3.57334 8.9471 4.94017L11.0684 7.06149C11.2637 6.86623 11.5803 6.86623 11.7755 7.06149L13.8968 4.94017ZM15.3131 6.35644L13.8968 4.94017L11.7755 7.06149L13.1918 8.47776L15.3131 6.35644ZM16.1667 6.00289C16.1667 6.44834 15.6281 6.67142 15.3131 6.35644L13.1918 8.47776C15.3967 10.6826 19.1667 9.12105 19.1667 6.00289L16.1667 6.00289ZM16.1667 4V6.00289H19.1667V4H16.1667ZM19.6667 0.5C17.7337 0.5 16.1667 2.067 16.1667 4H19.1667C19.1667 3.72386 19.3905 3.5 19.6667 3.5V0.5ZM25.3333 0.5H19.6667V3.5H25.3333V0.5ZM28.8333 4C28.8333 2.067 27.2663 0.5 25.3333 0.5V3.5C25.6095 3.5 25.8333 3.72386 25.8333 4H28.8333ZM28.8333 6.00287V4H25.8333V6.00287H28.8333ZM29.6869 6.35643C29.3719 6.67141 28.8333 6.44833 28.8333 6.00287L25.8333 6.00287C25.8333 9.12104 29.6033 10.6826 31.8082 8.47775L29.6869 6.35643ZM31.1031 4.9402L29.6869 6.35643L31.8082 8.47775L33.2244 7.06152L31.1031 4.9402ZM36.0529 4.9402C34.686 3.57337 32.47 3.57337 31.1031 4.9402L33.2244 7.06152C33.4197 6.86626 33.7363 6.86626 33.9316 7.06152L36.0529 4.9402ZM40.0598 8.94714L36.0529 4.9402L33.9315 7.06152L37.9385 11.0685L40.0598 8.94714ZM40.0598 13.8969C41.4266 12.5301 41.4266 10.314 40.0598 8.94714L37.9385 11.0685C38.1338 11.2637 38.1337 11.5803 37.9385 11.7756L40.0598 13.8969ZM38.6436 15.3131L40.0598 13.8969L37.9385 11.7756L36.5223 13.1918L38.6436 15.3131ZM38.9971 16.1667C38.5517 16.1667 38.3286 15.6281 38.6436 15.3131L36.5223 13.1918C34.3174 15.3967 35.879 19.1667 38.9971 19.1667L38.9971 16.1667ZM41 16.1667H38.9971V19.1667H41V16.1667ZM44.5 19.6667C44.5 17.7337 42.933 16.1667 41 16.1667V19.1667C41.2761 19.1667 41.5 19.3905 41.5 19.6667H44.5ZM44.5 25.3333V19.6667H41.5V25.3333H44.5ZM41 28.8333C42.933 28.8333 44.5 27.2663 44.5 25.3333H41.5C41.5 25.6095 41.2761 25.8333 41 25.8333V28.8333ZM38.9971 28.8333H41V25.8333H38.9971V28.8333ZM38.6436 29.6869C38.3286 29.3719 38.5517 28.8333 38.9971 28.8333V25.8333C35.8789 25.8333 34.3174 29.6033 36.5222 31.8082L38.6436 29.6869ZM40.0598 31.1031L38.6436 29.6869L36.5222 31.8082L37.9385 33.2244L40.0598 31.1031ZM40.0598 36.0529C41.4266 34.686 41.4266 32.47 40.0598 31.1031L37.9385 33.2244C38.1337 33.4197 38.1337 33.7363 37.9385 33.9316L40.0598 36.0529ZM36.0529 40.0598L40.0598 36.0529L37.9385 33.9315L33.9315 37.9385L36.0529 40.0598ZM31.1031 40.0598C32.4699 41.4266 34.686 41.4266 36.0529 40.0598L33.9315 37.9385C33.7363 38.1338 33.4197 38.1337 33.2244 37.9385L31.1031 40.0598ZM29.6869 38.6436L31.1031 40.0598L33.2244 37.9385L31.8082 36.5223L29.6869 38.6436ZM28.8333 38.9971C28.8333 38.5517 29.3719 38.3286 29.6869 38.6436L31.8082 36.5223C29.6033 34.3174 25.8333 35.879 25.8333 38.9971L28.8333 38.9971ZM28.8333 41V38.9971H25.8333V41H28.8333ZM25.3333 44.5C27.2663 44.5 28.8333 42.933 28.8333 41H25.8333C25.8333 41.2761 25.6095 41.5 25.3333 41.5V44.5ZM19.6667 44.5H25.3333V41.5H19.6667V44.5ZM28.5 22.5C28.5 25.8137 25.8137 28.5 22.5 28.5V31.5C27.4706 31.5 31.5 27.4706 31.5 22.5H28.5ZM22.5 16.5C25.8137 16.5 28.5 19.1863 28.5 22.5H31.5C31.5 17.5294 27.4706 13.5 22.5 13.5V16.5ZM16.5 22.5C16.5 19.1863 19.1863 16.5 22.5 16.5V13.5C17.5294 13.5 13.5 17.5294 13.5 22.5H16.5ZM22.5 28.5C19.1863 28.5 16.5 25.8137 16.5 22.5H13.5C13.5 27.4706 17.5294 31.5 22.5 31.5V28.5Z" fill="black"/>
</svg>
